# AST/ASF file generated using VICON BodyLanguage
# -----------------------------------------------
:version 1.10
:name VICON
:units
  mass 1.0
  length 0.45
  angle deg
:documentation
   .ast/.asf automatically generated from VICON data using
   VICON BodyBuilder and BodyLanguage model FoxedUp or BRILLIANT.MOD
:root
   order TX TY TZ RX RY RZ
   axis XYZ
   position 0 0 0  
   orientation 0 0 0 
:bonedata
  begin
     id 1 
     name lhipjoint
     direction 0.621036 -0.695554 0.361275 
     length 2.46325 
     axis 0 0 0  XYZ
  end
  begin
     id 2 
     name lfemur
     direction 0.34202 -0.939693 0  
     length 6.54784  
     axis 0 0 20  XYZ
    dof rx ry rz
    limits (-160.0 20.0)
           (-70.0 70.0)
           (-60.0 70.0)
  end
  begin
     id 3 
     name ltibia
     direction 0.34202 -0.939693 0   
     length 7.84737   
     axis 0 0 20   XYZ
    dof rx
    limits (-10.0 170.0)
  end
  begin
     id 4 
     name lfoot
     direction 0.0790693 -0.217241 0.97291   
     length 2.59747   
     axis -90 7.62852e-016 20   XYZ
    dof rx rz
    limits (-45.0 90.0)
           (-70.0 20.0)
  end
  begin
     id 5 
     name ltoes
     direction 1.53572e-011 -4.21898e-011 1   
     length 1.29919   
     axis -90 7.62852e-016 20   XYZ
    dof rx
    limits (-90.0 20.0)
  end
  begin
     id 6 
     name rhipjoint
     direction -0.602353 -0.708375 0.367935   
     length 2.41867  
     axis 0 0 0  XYZ 
  end
  begin
     id 7 
     name rfemur
     direction -0.34202 -0.939693 0   
     length 6.92065   
     axis 0 0 -20   XYZ
    dof rx ry rz
    limits (-160.0 20.0)
           (-70.0 70.0)
           (-70.0 60.0)
  end
  begin
     id 8 
     name rtibia
     direction -0.34202 -0.939693 0   
     length 7.88883   
     axis 0 0 -20   XYZ
    dof rx
    limits (-10.0 170.0)
 end
 begin
     id 9 
     name rfoot
     direction -0.0768692 -0.211196 0.974416   
     length 2.43714  
     axis -90 -7.62852e-016 -20   XYZ
    dof rx rz
    limits (-45.0 90.0)
           (-20.0 70.0)
  end
  begin
     id 10 
     name rtoes
     direction -1.53575e-011 -4.21933e-011 1   
     length 1.22113   
     axis -90 -7.62852e-016 -20   XYZ
    dof rx
    limits (-90.0 20.0)
  end
  begin
     id 11 
     name lowerback
     direction 0.0197937 0.98943 -0.143655   
     length 2.16931   
     axis 0 0 0   XYZ
    dof rx ry rz
    limits (-20.0 45.0)
           (-30.0 30.0)
           (-30.0 30.0)
  end
  begin
     id 12 
     name upperback
     direction -0.00183968 0.999975 0.00684288   
     length 2.17221   
     axis 0 0 0   XYZ
    dof rx ry rz
    limits (-20.0 45.0)
           (-30.0 30.0)
           (-30.0 30.0)
  end
  begin
     id 13 
     name thorax
     direction -0.00950244 0.997208 0.0740685   
     length 2.22549   
     axis 0 0 0   XYZ
    dof rx ry rz
    limits (-20.0 45.0)
           (-30.0 30.0)
           (-30.0 30.0)
  end
  begin
     id 14 
     name lowerneck
     direction 0.0218238 0.996215 0.0841425   
     length 1.77269   
     axis 0 0 0   XYZ
    dof rx ry rz
    limits (-20.0 45.0)
           (-30.0 30.0)
           (-30.0 30.0)
  end
  begin
     id 15 
     name upperneck
     direction -0.00430652 0.994214 -0.107332   
     length 1.76534   
     axis 0 0 0   XYZ
    dof rx ry rz
    limits (-20.0 45.0)
           (-30.0 30.0)
           (-30.0 30.0)
  end
  begin
     id 16
     name head
     direction -0.00328946 0.998959 -0.0454998  
     length 1.82634  
     axis 0 0 0   XYZ
    dof rx ry rz
    limits (-20.0 45.0)
           (-30.0 30.0)
           (-30.0 30.0)
  end
  begin
     id 17 
     name lclavicle
     direction 0.970962 0.239191 0.00450212  
     length 3.84872  
     axis 0 0 0   XYZ
    dof ry rz
    limits (-20.0 10.0)
           (0.0 20.0)
  end
  begin
     id 18 
     name lhumerus
     direction 1 -4.48966e-011 5.74696e-028   
     length 5.22771   
     axis 180 -30 -90   XYZ
    dof rx ry rz
    limits (-60.0 90.0)
           (-90.0 90.0)
           (-90.0 90.0)
  end
  begin
     id 19
     name lradius
     direction 1 -4.4896e-011 4.25109e-027   
     length 3.45251   
     axis 180 -30 -90   XYZ
    dof rx
    limits (-10.0 170.0)
  end
  begin
     id 20
     name lwrist
     direction 1 -4.48971e-011 1.15382e-027   
     length 1.72626   
     axis -5.52449e-016 90 90   XYZ
    dof ry
    limits (-180.0 0.0)
 end
  begin
     id 21 
     name lhand
     direction 1 -4.49034e-011 2.30765e-027   
     length 0.552119   
     axis -1.47248e-015 90 90   XYZ
    dof rx rz
    limits (-90.0 90.0)
           (-45.0 45.0)
  end
  begin
     id 22 
     name lfingers
     direction 1 -4.48951e-011 4.61529e-027   
     length 0.445133   
     axis -2.94495e-015 90 90   XYZ
    dof rx
    limits (0.0 90.0)
  end
  begin
     id 23
     name lthumb
     direction 0.707107 -6.34991e-011 0.707107   
     length 0.639124   
     axis -90 45 2.85299e-015   XYZ
    dof rx rz
    limits (-45.0 45.0)
           (-45.0 45.0)
  end
  begin
     id 24 
     name rclavicle
     direction -0.97424 0.222511 -0.0366699   
     length 3.73439  
     axis 0 0 0   XYZ 
    dof ry rz
    limits (-10.0 20.0)
           (-20.0 0.0)
  end
  begin
     id 25 
     name rhumerus
     direction -1 -4.48956e-011 -4.97258e-028  
     length 5.2398   
     axis 180 30 90   XYZ
    dof rx ry rz
    limits (-90.0 60.0)
           (-90.0 90.0)
           (-90.0 90.0)
  end
  begin
     id 26 
     name rradius
     direction -1 -4.4897e-011 -1.72611e-027   
     length 3.48042   
     axis 180 30 90   XYZ
    dof rx
    limits (-10.0 170.0)
  end
  begin
     id 27 
     name rwrist
     direction -1 -4.48976e-011 1.15382e-027   
     length 1.74021   
     axis -5.52449e-016 -90 -90   XYZ
    dof ry
    limits (-180.0 0.0)
  end
  begin
     id 28
     name rhand
     direction -1 -4.48963e-011 2.30765e-027   
     length 0.618713   
     axis -1.47248e-015 -90 -90   XYZ
    dof rx rz
    limits (-90.0 90.0)
           (-45.0 45.0)
  end
  begin
     id 29
     name rfingers
     direction -1 -4.4888e-011 4.61529e-027   
     length 0.498823   
     axis -2.94495e-015 -90 -90   XYZ
    dof rx
    limits (0.0 90.0)
  end
  begin
     id 30
     name rthumb
     direction -0.707107 -6.34968e-011 0.707107   
     length 0.716213   
     axis -90 -45 -2.85299e-015   XYZ
    dof rx rz
    limits (-45.0 45.0)
           (-45.0 45.0)
  end
:hierarchy
  begin
    root lhipjoint rhipjoint lowerback
    lhipjoint lfemur
    lfemur ltibia
    ltibia lfoot
    lfoot ltoes
    rhipjoint rfemur
    rfemur rtibia
    rtibia rfoot
    rfoot rtoes
    lowerback upperback
    upperback thorax
    thorax lowerneck lclavicle rclavicle
    lowerneck upperneck
    upperneck head
    lclavicle lhumerus
    lhumerus lradius
    lradius lwrist
    lwrist lhand lthumb
    lhand lfingers
    rclavicle rhumerus
    rhumerus rradius
    rradius rwrist
    rwrist rhand rthumb
    rhand rfingers
  end

#!OML:ASF G:\JayActor3\Patient Classification 1\Patient 1\Session 5\male.ASF
:FULLY-SPECIFIED
:DEGREES
43
root 48.1167 16.2978 -4.17576 -140.686 85.3517 -137.759
lowerback -0.369837 -0.228051 3.26522
upperback 3.62859 -0.336728 -0.0617223
thorax 3.92707 -0.0392168 -1.90423
lowerneck -3.67789 0.696813 1.99305
upperneck -2.40162 0.916664 1.31376
head -0.127986 0.464337 0.0823926
rclavicle -1.2424e-016 -8.74653e-015
rhumerus -31.1717 -13.536 -85.073
rradius 25.4951
rwrist 5.06264
rhand -20.6303 -9.94651
rfingers 7.12502
rthumb 5.73127 -39.849
lclavicle -1.2424e-016 -8.74653e-015
lhumerus -26.6199 14.2219 82.5324
lradius 20.4468
lwrist 13.8026
lhand -18.2761 13.0083
lfingers 7.12502
lthumb 8.0039 42.8367
rfemur -4.75179 0.000324665 24.3492
rtibia 32.429
rfoot -25.3712 -13.5451
rtoes 8.51311
lfemur 5.67493 3.22441 -14.8058
ltibia 14.5486
lfoot -14.4942 5.16916
ltoes -7.94212
44
root 48.1175 16.2977 -4.17561 -140.664 85.3598 -137.739
lowerback -0.373899 -0.221727 3.26112
upperback 3.62745 -0.328198 -0.0674091
thorax 3.92865 -0.0350201 -1.9075
lowerneck -3.65371 0.689843 2.01598
upperneck -2.4085 0.907111 1.30153
head -0.133797 0.459142 0.0748654
rclavicle 5.71506e-016 2.38542e-015
rhumerus -31.1724 -13.5886 -85.0581
rradius 25.4909
rwrist 5.07602
rhand -20.6282 -9.96135
rfingers 7.12502
rthumb 5.73336 -39.8638
lclavicle 5.71506e-016 2.38542e-015
lhumerus -26.6146 14.2479 82.4565
lradius 20.4279
lwrist 13.7741
lhand -18.2878 13.0134
lfingers 7.12502
lthumb 7.9926 42.8423
rfemur -4.75145 0.0016345 24.3447
rtibia 32.4298
rfoot -25.3735 -13.54
rtoes 8.51636
lfemur 5.68689 3.22574 -14.8104
ltibia 14.5319
lfoot -14.4899 5.17545
ltoes -7.95706
45
root 48.1185 16.2976 -4.17566 -140.573 85.3667 -137.646
lowerback -0.376548 -0.214379 3.26463
upperback 3.62704 -0.318447 -0.0720367
thorax 3.93026 -0.0299582 -1.9139
lowerneck -3.63487 0.681315 2.03814
upperneck -2.40995 0.895266 1.29069
head -0.137134 0.452886 0.0678896
rclavicle -2.11209e-015 7.15625e-015
rhumerus -31.1753 -13.6418 -85.0429
rradius 25.4903
rwrist 5.0915
rhand -20.6335 -9.96568
rfingers 7.12502
rthumb 5.72821 -39.8683
lclavicle -2.11209e-015 7.15625e-015
lhumerus -26.6114 14.2688 82.3833
lradius 20.4132
lwrist 13.7516
lhand -18.2946 13.0234
lfingers 7.12502
lthumb 7.98602 42.8525
rfemur -4.74668 -0.00119989 24.3439
rtibia 32.4294
rfoot -25.3718 -13.5317
rtoes 8.51112
lfemur 5.70112 3.22766 -14.8103
ltibia 14.5197
lfoot -14.4887 5.18567
ltoes -7.97488
46
root 48.1195 16.2975 -4.17582 -140.484 85.3721 -137.556
lowerback -0.380784 -0.207946 3.2698
upperback 3.62733 -0.310033 -0.0763434
thorax 3.93344 -0.0254733 -1.92096
lowerneck -3.61716 0.672686 2.05871
upperneck -2.41029 0.88334 1.2829
head -0.139979 0.446627 0.0620835
rclavicle 1.98785e-015 -3.18055e-015
rhumerus -31.1768 -13.693 -85.0286
rradius 25.4906
rwrist 5.10776
rhand -20.6447 -9.96411
rfingers 7.12502
rthumb 5.71742 -39.867
lclavicle 1.98785e-015 -3.18055e-015
lhumerus -26.6094 14.2859 82.3129
lradius 20.404
lwrist 13.7397
lhand -18.2973 13.0312
lfingers 7.12502
lthumb 7.9834 42.8604
rfemur -4.74158 -0.00938576 24.3422
rtibia 32.4273
rfoot -25.369 -13.5178
rtoes 8.51198
lfemur 5.71221 3.23193 -14.809
ltibia 14.5117
lfoot -14.4892 5.19247
ltoes -7.99907
47
root 48.1204 16.2974 -4.17609 -140.398 85.3752 -137.47
lowerback -0.384778 -0.203028 3.27626
upperback 3.62862 -0.303674 -0.0800525
thorax 3.9374 -0.0219427 -1.92819
lowerneck -3.60236 0.665249 2.07858
upperneck -2.40954 0.873005 1.2785
head -0.142048 0.441214 0.0574368
rclavicle 4.32357e-015 2.78299e-015
rhumerus -31.178 -13.7361 -85.0173
rradius 25.4968
rwrist 5.11938
rhand -20.6532 -9.95819
rfingers 7.12502
rthumb 5.70919 -39.8613
lclavicle 4.32357e-015 2.78299e-015
lhumerus -26.6071 14.3048 82.2442
lradius 20.3982
lwrist 13.7336
lhand -18.2986 13.0374
lfingers 7.12502
lthumb 7.98216 42.8667
rfemur -4.73608 -0.0238101 24.3402
rtibia 32.4239
rfoot -25.3628 -13.5006
rtoes 8.51259
lfemur 5.71987 3.23651 -14.8064
ltibia 14.5091
lfoot -14.4926 5.19631
ltoes -8.01609
48
root 48.1213 16.2973 -4.17638 -140.302 85.3784 -137.373
lowerback -0.390848 -0.198835 3.28209
upperback 3.6321 -0.298371 -0.0827846
thorax 3.94476 -0.018872 -1.93411
lowerneck -3.59248 0.659207 2.09494
upperneck -2.40711 0.864589 1.27936
head -0.142866 0.436853 0.054965
rclavicle -1.49089e-016 -5.1684e-015
rhumerus -31.1738 -13.7758 -85.0074
rradius 25.5003
rwrist 5.1295
rhand -20.6559 -9.95058
rfingers 7.12502
rthumb 5.70657 -39.8537
lclavicle -1.49089e-016 -5.1684e-015
lhumerus -26.603 14.3239 82.1794
lradius 20.3964
lwrist 13.733
lhand -18.3025 13.0306
lfingers 7.12502
lthumb 7.97842 42.86
rfemur -4.73147 -0.0380816 24.3386
rtibia 32.4199
rfoot -25.3552 -13.4831
rtoes 8.50997
lfemur 5.72529 3.2396 -14.8035
ltibia 14.5094
lfoot -14.4976 5.20018
ltoes -8.02581
49
root 48.1219 16.2971 -4.17666 -140.214 85.3803 -137.284
lowerback -0.39486 -0.196183 3.28696
upperback 3.63751 -0.295009 -0.0851772
thorax 3.95286 -0.0167428 -1.93922
lowerneck -3.58448 0.654746 2.10686
upperneck -2.4051 0.858538 1.28789
head -0.143558 0.433748 0.0555352
rclavicle -3.8266e-015 -1.19271e-015
rhumerus -31.1675 -13.8099 -85.0011
rradius 25.5073
rwrist 5.1325
rhand -20.6566 -9.9419
rfingers 7.12502
rthumb 5.7059 -39.8451
lclavicle -3.8266e-015 -1.19271e-015
lhumerus -26.598 14.3496 82.1152
lradius 20.3959
lwrist 13.7315
lhand -18.3142 13.0091
lfingers 7.12502
lthumb 7.96713 42.8389
rfemur -4.72595 -0.0514294 24.3377
rtibia 32.4162
rfoot -25.3474 -13.468
rtoes 8.49968
lfemur 5.73025 3.24126 -14.8003
ltibia 14.5121
lfoot -14.5025 5.20371
ltoes -8.03756
50
root 48.1224 16.2969 -4.1769 -140.142 85.3836 -137.208
lowerback -0.397249 -0.195166 3.28675
upperback 3.64453 -0.293649 -0.0868129
thorax 3.9616 -0.0157403 -1.94076
lowerneck -3.5762 0.652827 2.11985
upperneck -2.40352 0.85587 1.29672
head -0.14441 0.432326 0.0560506
rclavicle 5.44173e-015 4.37326e-015
rhumerus -31.1591 -13.8351 -84.9984
rradius 25.5167
rwrist 5.12692
rhand -20.6495 -9.93909
rfingers 7.12502
rthumb 5.71279 -39.8421
lclavicle 5.44173e-015 4.37326e-015
lhumerus -26.5928 14.3858 82.0508
lradius 20.3952
lwrist 13.7254
lhand -18.3261 12.9783
lfingers 7.12502
lthumb 7.95562 42.8086
rfemur -4.7185 -0.0602219 24.3359
rtibia 32.4131
rfoot -25.3419 -13.454
rtoes 8.49169
lfemur 5.7369 3.24101 -14.7993
ltibia 14.5153
lfoot -14.5063 5.21003
ltoes -8.0588
51
root 48.1228 16.2967 -4.177 -140.061 85.3845 -137.122
lowerback -0.396313 -0.195142 3.28576
upperback 3.65234 -0.293489 -0.086917
thorax 3.9692 -0.0153801 -1.94031
lowerneck -3.56826 0.651455 2.13074
upperneck -2.40518 0.854132 1.3074
head -0.146196 0.431372 0.0574623
rclavicle -2.48481e-015 -1.07344e-014
rhumerus -31.1498 -13.8516 -84.9993
rradius 25.5309
rwrist 5.1086
rhand -20.6448 -9.93916
rfingers 7.12502
rthumb 5.71732 -39.842
lclavicle -2.48481e-015 -1.07344e-014
lhumerus -26.5857 14.4329 81.9868
lradius 20.3911
lwrist 13.708
lhand -18.3414 12.9496
lfingers 7.12502
lthumb 7.94086 42.7804
rfemur -4.71012 -0.0636403 24.3389
rtibia 32.4107
rfoot -25.3371 -13.4493
rtoes 8.4731
lfemur 5.74381 3.24074 -14.7949
ltibia 14.5195
lfoot -14.5087 5.21436
ltoes -8.07774
